<?xml version="1.0" standalone="no"?>
<!DOCTYPE svg PUBLIC "-//W3C//DTD SVG 20010904//EN"
 "http://www.w3.org/TR/2001/REC-SVG-20010904/DTD/svg10.dtd">
<svg version="1.0" xmlns="http://www.w3.org/2000/svg"
 width="740.000000pt" height="732.000000pt" viewBox="0 0 740.000000 732.000000"
 preserveAspectRatio="xMidYMid meet">

<g transform="translate(0.000000,732.000000) scale(0.100000,-0.100000)"
fill="#000000" stroke="none">
<path d="M4663 4540 c-43 -15 -58 -16 -82 -7 -34 13 -61 -3 -61 -35 0 -23 37
-57 63 -58 34 0 18 -90 -24 -128 -13 -13 -19 -27 -15 -37 8 -22 -17 -67 -56
-100 -31 -27 -33 -27 -36 -8 -2 11 -14 26 -28 34 -32 17 -58 3 -62 -35 -2 -15
-10 -30 -18 -33 -8 -3 -14 -12 -14 -19 0 -8 -9 -27 -19 -42 -12 -16 -21 -47
-23 -77 l-2 -50 34 -5 c27 -4 36 -10 40 -30 3 -14 13 -39 22 -55 19 -35 52
-218 45 -246 -7 -25 45 -69 73 -62 19 5 19 6 1 32 -13 19 -22 61 -31 158 -7
73 -10 138 -7 146 6 16 65 11 82 -7 36 -37 80 -116 86 -156 4 -26 19 -71 33
-101 15 -30 33 -85 41 -124 17 -80 21 -330 5 -340 -5 -3 -10 -13 -10 -21 0
-12 37 -14 234 -14 l234 0 18 28 c27 38 34 266 10 313 -14 28 -16 86 -16 414
0 330 -2 384 -15 395 -13 10 -19 10 -33 -3 -9 -8 -29 -18 -43 -22 -19 -5 -28
-15 -33 -36 -3 -16 -11 -29 -18 -29 -8 0 -43 33 -79 73 -48 53 -69 85 -79 121
-7 27 -28 69 -47 92 -36 49 -28 55 32 24 49 -25 55 -25 55 0 0 15 -14 28 -52
45 -64 30 -132 32 -205 5z m60 -167 c4 -2 7 -28 7 -56 0 -43 6 -62 36 -106 43
-67 42 -97 -6 -129 -72 -47 -70 -43 -68 -146 1 -66 -2 -99 -11 -110 -19 -23
-24 -20 -46 21 -30 56 -74 103 -99 103 -43 1 -56 22 -56 94 0 59 3 69 28 93
16 16 43 55 60 88 89 175 83 166 116 159 17 -3 34 -8 39 -11z m107 -49 c0 -9
29 -45 65 -79 59 -56 78 -84 58 -85 -5 -1 -27 -5 -51 -9 -39 -8 -44 -6 -52 13
-4 11 -20 38 -34 59 -29 42 -32 67 -14 97 15 24 28 26 28 4z"/>
<path d="M1667 3504 c-4 -4 -7 -92 -7 -196 l0 -188 215 0 215 0 0 40 0 40
-165 0 -165 0 0 40 0 40 131 0 130 0 -3 38 -3 37 -125 1 -125 2 -3 36 -3 35
163 3 163 3 0 35 0 35 -206 3 c-113 1 -208 -1 -212 -4z"/>
<path d="M2196 3489 c-24 -19 -26 -26 -26 -95 0 -61 4 -78 20 -94 23 -23 15
-22 153 -20 60 1 121 -2 138 -5 25 -6 29 -11 29 -41 l0 -34 -120 0 -120 0 -6
25 c-6 24 -10 26 -53 23 l-46 -3 1 -48 c1 -74 7 -76 222 -77 223 0 222 -1 222
113 0 112 1 111 -182 117 l-153 5 0 35 0 35 103 3 c102 3 102 3 112 -23 9 -24
14 -26 57 -23 l48 3 -1 44 c-2 75 -17 81 -209 81 -149 0 -164 -2 -189 -21z"/>
<path d="M2729 3481 c-29 -29 -29 -30 -29 -155 0 -68 5 -137 10 -152 20 -51
31 -53 231 -54 170 0 188 2 211 20 28 21 41 68 32 106 -6 23 -11 25 -53 22
-41 -3 -46 -6 -49 -30 -4 -34 -28 -40 -150 -37 -142 3 -132 -5 -132 110 0 120
-1 119 142 119 109 0 133 -8 140 -45 3 -17 11 -20 53 -20 41 0 50 3 49 18 -1
9 -2 31 -3 47 0 18 -11 41 -26 55 -24 25 -26 25 -210 25 l-187 0 -29 -29z"/>
<path d="M3412 3483 c-33 -48 -192 -338 -192 -351 0 -8 17 -12 48 -12 44 0 49
3 66 35 l19 35 121 0 121 0 19 -35 c18 -33 22 -35 68 -35 32 0 48 4 48 13 0
10 -51 106 -100 187 -5 8 -21 37 -36 65 -63 118 -70 125 -118 125 -37 0 -48
-5 -64 -27z m102 -139 c14 -29 26 -55 26 -58 0 -3 -30 -6 -66 -6 -61 0 -65 1
-59 20 13 40 58 111 66 103 4 -4 19 -31 33 -59z"/>
<path d="M3776 3488 c-4 -20 -2 -340 2 -360 1 -5 111 -8 245 -8 l243 0 17 35
17 35 120 0 121 0 20 -35 c19 -32 25 -35 70 -35 29 0 49 4 49 11 0 6 -15 37
-34 68 -18 31 -48 83 -66 116 -18 33 -50 90 -72 128 l-39 67 -48 0 -49 0 -93
-165 c-51 -91 -96 -165 -100 -165 -4 0 -9 7 -13 15 -4 12 -30 15 -145 15
l-140 0 -3 148 -3 147 -47 3 c-43 3 -48 1 -52 -20z m683 -141 c17 -32 31 -60
31 -63 0 -2 -31 -4 -70 -4 -38 0 -70 2 -70 4 0 8 72 128 74 124 2 -2 17 -29
35 -61z"/>
<path d="M5392 3402 c-34 -60 -75 -136 -93 -168 -17 -32 -36 -63 -40 -69 -5
-5 -9 -17 -9 -27 0 -15 8 -18 48 -18 44 0 49 3 66 35 l19 35 119 0 119 0 20
-35 c19 -32 25 -35 70 -35 33 0 49 4 48 13 0 6 -46 93 -102 192 l-102 180 -51
3 -51 3 -61 -109z m154 -65 c14 -27 24 -50 22 -52 -5 -6 -32 -7 -86 -6 l-53 1
32 58 c17 31 34 61 37 66 5 10 14 -2 48 -67z"/>
<path d="M4072 2988 c-12 -6 -21 -16 -19 -22 2 -6 -11 -41 -29 -78 -19 -37
-34 -74 -34 -83 0 -20 39 -20 46 0 4 10 20 15 44 15 21 0 43 -7 50 -15 15 -18
50 -20 50 -2 0 7 -16 43 -36 80 -26 50 -41 67 -57 68 -20 1 -20 2 3 8 14 4 26
15 28 24 4 19 -12 21 -46 5z m16 -127 c-15 -5 -19 4 -11 24 6 18 7 18 13 -1 4
-10 3 -21 -2 -23z"/>
<path d="M2454 2936 c-3 -7 -4 -42 -2 -77 3 -58 5 -64 26 -67 20 -3 22 0 22
50 l0 53 28 -50 c15 -27 32 -50 37 -49 6 0 19 17 30 37 24 45 32 46 33 6 1
-37 14 -54 37 -45 13 5 15 19 13 78 l-3 73 -32 3 c-29 3 -34 -1 -54 -39 l-21
-43 -25 42 c-20 34 -31 42 -54 42 -16 0 -32 -6 -35 -14z"/>
<path d="M2754 2939 c-8 -13 5 -26 31 -31 15 -2 21 -12 23 -40 3 -34 1 -37
-25 -40 -17 -2 -28 -9 -28 -18 0 -12 17 -16 78 -18 72 -3 77 -1 77 18 0 15 -6
20 -25 20 -22 0 -25 4 -25 40 0 36 3 40 25 40 18 0 25 5 25 20 0 18 -7 20 -74
20 -43 0 -78 -5 -82 -11z"/>
<path d="M2990 2870 l0 -80 70 0 c54 0 72 4 77 15 8 22 -1 28 -44 31 -21 1
-41 2 -45 3 -5 1 -8 26 -8 56 0 52 -1 55 -25 55 -25 0 -25 -1 -25 -80z"/>
<path d="M3204 2939 c-8 -13 5 -26 31 -31 15 -2 21 -12 23 -40 3 -34 1 -37
-25 -40 -17 -2 -28 -9 -28 -18 0 -12 17 -16 78 -18 72 -3 77 -1 77 18 0 15 -6
20 -25 20 -22 0 -25 4 -25 40 0 36 3 40 25 40 18 0 25 5 25 20 0 18 -7 20 -74
20 -43 0 -78 -5 -82 -11z"/>
<path d="M3477 2939 c-9 -5 -23 -22 -31 -37 -12 -23 -12 -32 -1 -59 17 -41 42
-53 105 -53 62 0 100 30 100 80 0 50 -38 80 -102 80 -29 0 -61 -5 -71 -11z
m117 -51 c16 -26 -4 -52 -43 -56 -37 -4 -61 12 -61 39 0 39 82 52 104 17z"/>
<path d="M3738 2940 c-1 -5 -2 -41 0 -80 3 -60 6 -70 22 -70 16 0 19 9 22 52
l3 52 28 -52 c26 -47 31 -52 63 -52 l34 0 0 81 c0 78 -1 80 -22 77 -19 -2 -24
-11 -28 -47 l-5 -44 -22 47 c-21 41 -26 46 -57 46 -19 0 -36 -4 -38 -10z"/>
<path d="M4257 2943 c-2 -5 -4 -39 -3 -78 1 -64 3 -70 23 -73 16 -2 22 3 25
20 2 17 11 24 31 26 15 2 28 -1 28 -7 1 -6 2 -17 3 -23 0 -7 12 -13 26 -13 21
0 25 4 22 25 -4 38 -3 43 4 74 10 41 -15 56 -92 56 -35 0 -65 -3 -67 -7z m108
-53 c0 -18 -43 -26 -57 -12 -16 16 2 33 30 30 16 -2 27 -9 27 -18z"/>
<path d="M4500 2931 c0 -14 8 -21 27 -23 23 -3 27 -7 27 -38 0 -31 -4 -35 -27
-38 -19 -2 -27 -9 -27 -23 0 -18 6 -20 78 -17 59 2 77 6 77 18 0 8 -11 17 -25
20 -21 5 -25 12 -25 40 0 28 4 35 25 40 14 3 25 12 25 20 0 12 -18 16 -77 18
-72 3 -78 1 -78 -17z"/>
<path d="M4761 2891 c-46 -92 -47 -101 -16 -101 14 0 28 7 31 15 4 10 20 15
45 15 26 0 42 -5 45 -15 7 -17 54 -21 54 -4 0 5 -16 41 -36 80 -32 61 -39 69
-65 69 -25 0 -32 -7 -58 -59z m72 -15 c6 -15 -1 -26 -15 -26 -4 0 -8 9 -8 20
0 23 15 27 23 6z"/>
</g>
</svg>
